<svg viewBox="0 0 48 48" xmlns="http://www.w3.org/2000/svg" role="img" aria-label="โลโก้ระบบสแกนใบหน้า">
  <defs>
    <linearGradient id="bg" x1="0" y1="0" x2="1" y2="1">
      <stop offset="0%" stop-color="#0f8a4f"/>
      <stop offset="100%" stop-color="#0a6e3e"/>
    </linearGradient>
  </defs>
  <circle cx="24" cy="24" r="24" fill="url(#bg)"/>
  <path d="M6 16V10a4 4 0 0 1 4-4h6" stroke="#fff" stroke-width="3" stroke-linecap="round" fill="none"/>
  <path d="M42 16V10a4 4 0 0 0-4-4h-6" stroke="#fff" stroke-width="3" stroke-linecap="round" fill="none"/>
  <path d="M6 32v6a4 4 0 0 0 4 4h6" stroke="#fff" stroke-width="3" stroke-linecap="round" fill="none"/>
  <path d="M42 32v6a4 4 0 0 1-4 4h-6" stroke="#fff" stroke-width="3" stroke-linecap="round" fill="none"/>
  <circle cx="24" cy="20" r="6" stroke="#fff" stroke-width="2.5" fill="none"/>
  <path d="M14 34c0-5.5 4.5-9 10-9s10 3.5 10 9" stroke="#fff" stroke-width="2.5" stroke-linecap="round" fill="none"/>
</svg>
